<svg xmlns="http://www.w3.org/2000/svg" version="1.1" xmlns:xlink="http://www.w3.org/1999/xlink" viewBox="0 0 4.335063330087253 4.335063330087253"><g transform="matrix(0.8571428571428571,0,0,0.8571428571428571,0.6192947614410365,0.6192947614410365)"><rect width="5.057573885101796" height="5.057573885101796" x="-0.7225105550145421" y="-0.7225105550145421" fill="#ffffff"></rect><g><path d=" M 1.3787078808972406 0.6701887330537387 L 1.356109972371667 0.6147148244996283 L 1.3479677107151478 0.6726160643405573 L 1.3456508709865205 0.6735553479355668 L 1.299561552091616 0.6378562627399518 L 1.3219916443404438 0.6931823954595724 L 1.317357964883189 0.6950609626495914 L 1.291058024222922 0.6301894502480262 L 1.295042988556161 0.6285738824646099 L 1.3443759189545816 0.6669504635825857 L 1.3530566553609893 0.605054221245571 L 1.3569489461050832 0.6034762248059549 L 1.3833415603544954 0.6683101658637197 L 1.3787078808972406 0.6701887330537387 M 1.4444941712211636 0.6271307767249334 L 1.405901666521497 0.6397394475908972 L 1.4035597336208183 0.6612293370808113 L 1.3983316849546075 0.6629374082572349 L 1.407200445809578 0.5863986267089418 L 1.41204827275461 0.5848147788908035 L 1.4643952090094556 0.641353599755154 L 1.4591671603432446 0.6430616709315777 L 1.4444941712211636 0.6271307767249334 M 1.441352716943996 0.6236334541741148 L 1.4113159585829416 0.5909453348161641 L 1.4064673740258242 0.6350309472967963 L 1.441352716943996 0.6236334541741148 M 1.4905231086435373 0.6096325883497621 L 1.4967358431283884 0.6329180329497851 L 1.4918082179225745 0.6342327609942972 L 1.4855954834377234 0.6109473163942741 L 1.4465160622520257 0.5738683622586619 L 1.4519267879682134 0.5724247393078251 L 1.4869926140742902 0.6057101391026058 L 1.5008165596180545 0.5593805747877643 L 1.505937425028018 0.5580142887807222 L 1.4905231086435373 0.6096325883497621 M 1.5842185488828315 0.6082860136296327 L 1.5851571256189585 0.6127892428832242 L 1.5378732184562487 0.6226442986125573 L 1.5235905289934473 0.5541168969274709 L 1.5694059918343335 0.5445678988294835 L 1.5703445685704605 0.5490711280830749 L 1.5295218164237734 0.5575795302344868 L 1.5351532768405352 0.5845989057560351 L 1.5716685923098739 0.5769882726565708 L 1.5725867652039112 0.5813936056220407 L 1.5360714497345724 0.589004238721505 L 1.5419273524143209 0.6171004734123904 L 1.5842185488828315 0.6082860136296327 M 1.622165444152805 0.5719348648665075 L 1.6089999627832228 0.5901658851425967 L 1.6117020291000737 0.608366402652254 L 1.6066573204425056 0.6091153449465985 L 1.5963777203240506 0.5398742457250765 L 1.6014224289816186 0.5391253034307318 L 1.6080307433434826 0.5836374386445675 L 1.6446486580670545 0.5327078959282107 L 1.650781441140961 0.531797417060576 L 1.624985232965875 0.5677756833304735 L 1.6631382742360614 0.6007301282785444 L 1.6570054911621552 0.6016406071461791 L 1.622165444152805 0.5719348648665075 M 1.7183073340101238 0.5760548910895302 L 1.677863736303962 0.5796151445330557 L 1.6707255336747158 0.6000197043965722 L 1.6652467211775757 0.6005020047399069 L 1.6911843099729358 0.5279480145844179 L 1.696264663379375 0.5275007906296894 L 1.7344789881868923 0.5944074822195862 L 1.729000175689752 0.5948897825629209 L 1.7183073340101238 0.5760548910895302 M 1.7160375821517773 0.5719380687103727 L 1.6941657487303041 0.5333072144254448 L 1.6794789605799512 0.5751563273649881 L 1.7160375821517773 0.5719380687103727 M 1.798972772604725 0.5925485032967234 L 1.7816596962394677 0.5695983968313764 Q 1.7779742154458429 0.5701960851446496 1.7748752999803874 0.5702780786685466 L 1.7548822969774491 0.5708070691453022 L 1.7554879910733343 0.5936990575836666 L 1.750389775307585 0.5938339501552393 L 1.7485383086389406 0.523858439644955 L 1.7736295274076281 0.5231945565966268 Q 1.7868249093895676 0.5228454228819682 1.7944875950396555 0.5288948648916031 Q 1.8021502806897436 0.5349443069012381 1.8024438704043428 0.5460404235678689 Q 1.8026634014521963 0.5543375198140883 1.7985643281237553 0.5600979536387288 Q 1.7944652547953144 0.5658583874633695 1.7866288525139806 0.5683665340470259 L 1.8047707434755773 0.5923950960584643 L 1.798972772604725 0.5925485032967234 M 1.7747562771231176 0.5657796529928856 Q 1.785952358804763 0.5654834183259024 1.7917193695476328 0.5603790978920323 Q 1.7974863802905026 0.5552747774581622 1.797245689623579 0.5461779610918253 Q 1.797004998956655 0.5370811447254883 1.7909761379277913 0.5322889286729039 Q 1.7849472768989274 0.5274967126203196 1.773751195217282 0.5277929472873026 L 1.7537581922143437 0.5283219377640582 L 1.754763274120179 0.566308643469641 L 1.7747562771231176 0.5657796529928856 M 1.858331081438583 0.5916671386061679 Q 1.851534668826929 0.5886449249121765 1.847867664814161 0.5842400319997048 L 1.8503699302768113 0.5805700636681754 Q 1.8538534617317426 0.5846645732361828 1.85996172295781 0.5874491997450922 Q 1.8660699841838775 0.5902338262540017 1.8729598738212296 0.5906072171819957 Q 1.88294522112174 0.5911483634544508 1.888243383828533 0.5876299160792089 Q 1.8935415465353262 0.584111468703967 1.893871645761524 0.5780204068506558 Q 1.8941259845095777 0.5733272936194159 1.8915814616947273 0.5703852868817102 Q 1.889036938879877 0.5674432801440045 1.885123971900541 0.5657290195399459 Q 1.8812110049212052 0.5640147589358874 1.874507552160451 0.5620491239025363 Q 1.8669216525308245 0.5597352252856489 1.8623758723651294 0.5576862297548655 Q 1.857830092199434 0.5556372342240821 1.8547877841789386 0.5517168564478427 Q 1.8517454761584435 0.5477964786716035 1.8520863983100901 0.5415057098722821 Q 1.8523623829090423 0.5364131827490218 1.8552884138459733 0.5323155196398678 Q 1.8582144447829045 0.5282178565307138 1.8638915991028016 0.5260218558867987 Q 1.8695687534226986 0.5238258552428837 1.8778565916821222 0.5242750066490214 Q 1.8836480931164181 0.5245888714870454 1.8891478927383865 0.526589422440707 Q 1.8946476923603548 0.5285899733943685 1.898584752334552 0.5317075940832231 L 1.8964656663757486 0.5356987686846658 Q 1.8924287529285462 0.5325757365330868 1.8874673244826567 0.5308046555704203 Q 1.8825058960367673 0.529033574607754 1.8776130758595173 0.528768412934251 Q 1.8679272889780223 0.5282435010499696 1.8627235682815098 0.5318672133609411 Q 1.857519847584997 0.5354909256719126 1.857184336896075 0.541681840998229 Q 1.8569299981480212 0.5463749542294688 1.8594745209628714 0.5493169609671746 Q 1.8620190437777218 0.5522589677048804 1.8659320107570576 0.5539732283089389 Q 1.8698449777363935 0.5556874889129975 1.8766428725074282 0.5577583888820782 Q 1.8842287721370548 0.5600722874989655 1.8887246255662475 0.5621185772983868 Q 1.8932204789954403 0.5641648670978079 1.89626819847866 0.567985391401042 Q 1.89931591796188 0.5718059157042762 1.8989804072729577 0.5779968310305925 Q 1.8987044226740057 0.5830893581538528 1.8957311707319342 0.587134388795142 Q 1.8927579187898629 0.5911794194364312 1.8869309842604582 0.5933673028862594 Q 1.8811040497310536 0.5955551863360875 1.87281621147163 0.5951060349299498 Q 1.8651274940502371 0.5946893523001595 1.858331081438583 0.5916671386061679 M 1.940973115913611 0.5760273754801466 L 1.9384140480804462 0.5999911225123881 L 1.9333428816960299 0.5994495770373199 L 1.9359019495291947 0.5754858300050785 L 1.9127352917380354 0.5268509046243677 L 1.9183036312973945 0.5274455427930699 L 1.9390857559940464 0.5710991027062408 L 1.9686175566016026 0.5328185233888434 L 1.973887592255996 0.5333813059413651 L 1.940973115913611 0.5760273754801466 M 1.9847314691442908 0.6037182613812482 Q 1.9782881069798635 0.6000023383440977 1.9751015145986361 0.5952383453764387 L 1.9779736079655619 0.5918499711805062 Q 1.981010168968452 0.5962861065792205 1.9867939768068177 0.5996938282358204 Q 1.9925777846451835 0.6031015498924202 1.9993909267207264 0.6041929229076936 Q 2.0092650456707886 0.6057746229298289 2.014901892343732 0.6028291247400943 Q 2.0205387390166747 0.5998836265503596 2.0215035760301774 0.5938604139908218 Q 2.022246975040581 0.5892195780842925 2.0200238389302623 0.5860277657722985 Q 2.017800702819943 0.5828359534603046 2.0140883102432388 0.5807221556089411 Q 2.010375917666534 0.5786083577575777 2.0039145887840335 0.5759529427105157 Q 1.9966120401966911 0.5728589510929597 1.9923052808888966 0.5703461191716556 Q 1.987998521581102 0.5678332872503514 1.9853825704306327 0.5636164401368842 Q 1.9827666192801632 0.5593995930234168 1.9837630902941084 0.5531788980848776 Q 1.9845697573053975 0.548143097420346 1.9879079919313218 0.544373655872546 Q 1.9912462265572461 0.5406042143247461 1.9971217875800644 0.5390135280995157 Q 2.0029973486028827 0.5374228418742852 2.0111928673314345 0.5387356528926577 Q 2.0169198563224704 0.5396530389054961 2.0221804739307423 0.5422173911394025 Q 2.027441091539014 0.5447817433733089 2.0310307873021203 0.5482937348779023 L 2.028506207692533 0.5520416006432222 Q 2.024817770739926 0.5485137921384072 2.020068595673465 0.5462339157847196 Q 2.0153194206070038 0.5439540394310319 2.0104811023214735 0.5431790064201856 Q 2.0009032069399133 0.5416447573987143 1.9953492844562493 0.5447048137781709 Q 1.9897953619725854 0.5477648701576275 1.9888147079588616 0.5538868239066661 Q 1.9880713089484578 0.5585276598131953 1.9902944450587767 0.5617194721251892 Q 1.9925175811690956 0.5649112844371832 1.9962299737458002 0.5670250822885466 Q 1.9999423663225049 0.5691388801399101 2.006486619394285 0.5719088533766941 Q 2.013789167981627 0.5750028449942501 2.0180465566946713 0.5775077684154435 Q 2.0223039454077156 0.580012691836637 2.0249357135584063 0.5841307977606036 Q 2.027567481709097 0.5882489036845704 2.026586827695373 0.5943708574336088 Q 2.025780160684084 0.5994066580981406 2.0224004639635202 0.6031188205510795 Q 2.019020767242956 0.6068309830040184 2.012997094435887 0.6083979437289169 Q 2.0069734216288175 0.6099649044538152 1.9987779029002661 0.6086520934354429 Q 1.991174831308718 0.6074341844183987 1.9847314691442908 0.6037182613812482 M 2.0695703282201734 0.5547737300773489 L 2.044920548775785 0.5495365196230118 L 2.045876547509513 0.54503695670856 L 2.1001647522382254 0.5565712892568023 L 2.099208753504497 0.5610708521712542 L 2.074558974060109 0.5558336417169171 L 2.0609671659762343 0.6198056883702102 L 2.0559785201362986 0.618745776730642 L 2.0695703282201734 0.5547737300773489 M 2.148783664272784 0.637011924267571 L 2.147588869358526 0.6414540482092078 L 2.10094656797134 0.6289087016094946 L 2.119128229710055 0.5613111633671966 L 2.16432201242062 0.5734669029296515 L 2.1631272175063616 0.5779090268712883 L 2.122858398296307 0.567077951235511 L 2.1156896288107565 0.5937306948853314 L 2.1517094599027238 0.603418923211818 L 2.1505406387909494 0.6077644792416801 L 2.1145208076989817 0.5980762509151935 L 2.107066326386109 0.6257912415945357 L 2.148783664272784 0.637011924267571 M 2.2311162868129406 0.6691655545389394 L 2.25056466708613 0.6125106297331522 L 2.20635924940467 0.6507824345979307 L 2.2039960482813217 0.6499667873392444 L 2.192742779850788 0.592765266820727 L 2.1732651233133593 0.649198509646299 L 2.1685387210666613 0.6475672151289263 L 2.1913768443098776 0.581397583675157 L 2.195441550242038 0.5828004969600974 L 2.2073782216283946 0.6441520729481202 L 2.2546161063706944 0.6032243043176022 L 2.2585862842579205 0.6045945917121952 L 2.235842689059638 0.670796849056312 L 2.2311162868129406 0.6691655545389394 M 2.265711699305177 0.6806984376169452 Q 2.260339522747263 0.6755540504784608 2.258380051419731 0.670167913447473 L 2.2619768833813487 0.6675616134187182 Q 2.263868777957345 0.6725935846938067 2.2686738504474895 0.6772814710367611 Q 2.2734789229376338 0.6819693573797154 2.2798356847209496 0.6846529332832773 Q 2.2890483829576387 0.688542173723222 2.2952247704255293 0.6870248610176519 Q 2.30140115789342 0.6855075483120817 2.303773594561786 0.6798878023877013 Q 2.30560153756856 0.6755578342164573 2.304203096367839 0.6719281837913992 Q 2.302804655167117 0.6682985333663412 2.2997029619384333 0.6653609324548598 Q 2.296601268709749 0.6624233315433785 2.2909589123791916 0.6583046163263458 Q 2.28460409042053 0.6535594885226174 2.28102024901966 0.650092706035439 Q 2.277436407618789 0.6466259235482607 2.2759007458568443 0.64190715856652 Q 2.2743650840949 0.6371883935847795 2.276815305572065 0.6313843936956652 Q 2.278798818196437 0.6266859175949537 2.2829391739073195 0.6238206157631458 Q 2.287079529618202 0.620955313931338 2.2931648872495507 0.620810667816335 Q 2.2992502448808994 0.620666021701332 2.3068967844173516 0.6238940912664861 Q 2.3122401493946314 0.6261498507216541 2.316738089532387 0.6298939840682604 Q 2.321236029670142 0.6336381174148665 2.323885356219601 0.6379043884838839 L 2.3205403549742525 0.640942639077337 Q 2.317798901442427 0.6366374756039203 2.3137298748988906 0.6332915044462447 Q 2.3096608483553545 0.6299455332885693 2.3051466262193765 0.6280398054729963 Q 2.296210308929788 0.62426724224625 2.290087156039865 0.6259155743385864 Q 2.2839640031499417 0.6275639064309229 2.281552674077176 0.6332757793376702 Q 2.279724731070402 0.6376057475089142 2.2811231722711236 0.6412353979339722 Q 2.282521613471845 0.6448650483590304 2.285623306700529 0.6478026492705117 Q 2.288724999929213 0.650740250181993 2.294420590837738 0.6549899847857921 Q 2.3007754127963995 0.6597351125895204 2.3043131907060865 0.6631824488744991 Q 2.3078509686157735 0.6666297851594778 2.3094255227821177 0.6712564231588514 Q 2.3110000769484618 0.675883061158225 2.308588747875696 0.6815949340649724 Q 2.3066052352513244 0.686293410165684 2.302438262251458 0.6890932023041086 Q 2.2982712892515917 0.6918929944425334 2.2920477411466926 0.6919793019509372 Q 2.2858241930417935 0.692065609459341 2.2781776535053413 0.6888375398941868 Q 2.2710838758630905 0.6858428247554295 2.265711699305177 0.6806984376169452" fill="#ffffff" fill-rule="nonzero"></path></g><g><path d=" M 0.808654069958686 2.611874079293072 Q 0.8060265702780947 2.60476994349563 0.8067027255189783 2.599151864278476 L 0.8129439277392897 2.5977563733809137 Q 0.8124353275169967 2.603106263642768 0.8146369952290348 2.6094596217537016 Q 0.8168386629410729 2.6158129798646357 0.8211066423180545 2.620977701738818 Q 0.8270945536827751 2.628223729442895 0.8327479557033337 2.6296490524217115 Q 0.8384013577238925 2.6310743754005284 0.8426410547847886 2.6275708102403197 Q 0.8458786416312911 2.6248953604816148 0.8461813964483289 2.621337153135104 Q 0.8464841512653667 2.617778945788594 0.8451678603452644 2.614066819953758 Q 0.8438515694251619 2.610354694118922 0.8408806576506267 2.6042478386901498 Q 0.8373899720790162 2.5968840683080594 0.8358220963171392 2.592082582538496 Q 0.8342542205552622 2.587281096768933 0.8350494761088451 2.5822780908120606 Q 0.8358447316624279 2.577275084855189 0.840855282734396 2.5731345078476693 Q 0.8449408089930778 2.569758345056923 0.850077657113711 2.569145734752123 Q 0.8552145052343442 2.568533124447323 0.8609133943775334 2.571347846908533 Q 0.8666122835207227 2.5741625693697427 0.8720905854075947 2.5807919138649624 Q 0.8759126564914588 2.5854170379313945 0.8783035654952265 2.5909005180431213 Q 0.8806944744989941 2.596383998154848 0.8811344476255901 2.601468919358551 L 0.8749938793419885 2.6033001542300043 Q 0.8744265038459302 2.5980610622240867 0.8723591829254312 2.593283124990126 Q 0.8702918620049322 2.5885051877561653 0.8672342051378409 2.58480508850302 Q 0.8613736961425825 2.577713231601157 0.8556750593132821 2.576390152507625 Q 0.8499764224839818 2.5750670734140932 0.8456596400219785 2.578634339759033 Q 0.842422053175476 2.581309789517738 0.8420807556578846 2.584899847456614 Q 0.8417394581402933 2.5884899053954897 0.8431513008374921 2.5923176593319863 Q 0.8445631435346911 2.5961454132684834 0.8474703541244953 2.6021751832961484 Q 0.8509107227277508 2.6093210816912933 0.8525104490819934 2.61416111016141 Q 0.8541101754362359 2.619001138631527 0.8533216119908411 2.6239337512954797 Q 0.8525330485454463 2.6288663639594327 0.8475995828745855 2.632943239782221 Q 0.8435140566159037 2.6363194025729677 0.838345357902905 2.6368934701772138 Q 0.8331766591899062 2.6374675377814603 0.8274526115625395 2.6345438793267775 Q 0.8217285639351728 2.6316202208720947 0.8162502620483009 2.6249908763768754 Q 0.8112815696392774 2.6189782150905137 0.808654069958686 2.611874079293072 M 0.9029033049478766 2.6269726233746375 L 0.8863065433772139 2.608814773684584 L 0.8910305367925124 2.6044969170157937 L 0.9292165817071264 2.64627473378234 L 0.924492588291828 2.65059259045113 L 0.9078958267211653 2.6324347407610764 L 0.8609511421566367 2.6753434414071795 L 0.855958620383348 2.6698813240207406 L 0.9029033049478766 2.6269726233746375 M 0.923748763513654 2.739325104295263 L 0.9280759937421942 2.712057448023607 Q 0.9259380241432742 2.710381415209461 0.9238672716485267 2.708351148205962 L 0.9104430830618874 2.695189417286727 L 0.8949010391040675 2.711041384660312 L 0.8896170499795393 2.7058607033410382 L 0.9386234948915841 2.655877022433339 L 0.9573316726027516 2.6742194346718473 Q 0.9668999772336541 2.683600668412153 0.9678461876259602 2.693491304685593 Q 0.9687923980182662 2.7033819409590336 0.9609513668323391 2.7113793299042652 Q 0.9552106118569281 2.7172345610963102 0.9482917734352138 2.7183635761069316 Q 0.9413729350134994 2.7194925911175534 0.9341244999382223 2.7158870136382176 L 0.9295325894472591 2.744995850063657 L 0.923748763513654 2.739325104295263 M 0.9427089007884148 2.7115594205377502 Q 0.9498566135253828 2.7121252850354765 0.9556673777078109 2.706198648584992 Q 0.9616181603042735 2.7001292016176284 0.96087629000938 2.6930297559726815 Q 0.9601344197144865 2.685930310327735 0.9527082728367712 2.678649352797945 L 0.9394268947670111 2.665627640292745 L 0.9148536631039714 2.6906908860050343 L 0.9281350411737316 2.7037125985102346 Q 0.935561188051447 2.710993556040024 0.9427089007884148 2.7115594205377502 M 0.9875049049259393 2.7875382966116944 L 0.9833000116055298 2.7923631149672365 L 0.945983057136884 2.7598408931921945 L 0.9919740778288626 2.707069442428453 L 1.0281602154954284 2.738606142331524 L 1.0239553221750188 2.743430960687066 L 0.9933478807320487 2.7167561686857185 L 0.9769882176573306 2.735527727600249 L 1.0042785964808656 2.7593116554438155 L 1.0001394046185874 2.764061086012552 L 0.9728490257950525 2.740277158168986 L 0.9557666466808891 2.759877982738376 L 0.9875049049259393 2.7875382966116944 M 1.0473996489862183 2.81905108340564 L 1.0165523572112367 2.7951880452472424 L 0.9984663042760602 2.8048391948795914 L 0.9923759415409997 2.800127774525241 L 1.0605176340509295 2.7643407693154978 L 1.0662916143062464 2.768807440560531 L 1.048771118555261 2.8437543032609787 L 1.0426016602002648 2.838981695629299 L 1.0473996489862183 2.81905108340564 M 1.0489353038877038 2.8126532897216 L 1.0586536560142696 2.7726338740344105 L 1.0223591755892583 2.7920943645389804 L 1.0489353038877038 2.8126532897216 M 1.1628413742087926 2.836491319889513 L 1.123999935854616 2.8947265554997403 L 1.1180932190998645 2.8907869238952455 L 1.1491663697832057 2.8441987354070637 L 1.1001535022723061 2.86812359315709 L 1.0972417404917947 2.866181521239381 L 1.1003318881445692 2.811987970077974 L 1.0694252007684601 2.8583265789849692 L 1.0635184840137084 2.8543869473804744 L 1.102359922367885 2.796151711770247 L 1.1074347071853476 2.799536465683968 L 1.103927285927764 2.8595820150287934 L 1.15776658939133 2.833106565975792 L 1.1628413742087926 2.836491319889513 M 1.183988525437401 2.848774191009864 L 1.1903541202682117 2.8525476777860375 L 1.154658975088193 2.9127627640234364 L 1.1482933802573823 2.908989277247263 L 1.183988525437401 2.848774191009864 M 1.2630399858472654 2.892453155607597 L 1.230229384877276 2.954287324672833 L 1.224840978715877 2.9514281151597337 L 1.2117139005324455 2.8801615744946636 L 1.1850904414596541 2.9303355859647406 L 1.1785536864441863 2.9268670367193415 L 1.211364287414176 2.865032867654106 L 1.2167526935755748 2.867892077167205 L 1.2299681062862422 2.939205490119375 L 1.2565915653590338 2.8890314786492985 L 1.2630399858472654 2.892453155607597 M 1.3157240184687318 2.9552265460082086 L 1.3222035360840656 2.958129277734114 L 1.3112876294528426 2.9824959144002285 Q 1.30505785723643 2.9844168355676928 1.2980030613220188 2.9837766366876504 Q 1.2909482654076077 2.983136437807608 1.284194965357823 2.9801110554453962 Q 1.2746125801520478 2.9758182831746907 1.2688273150774512 2.968186068029882 Q 1.2630420500028543 2.960553852885073 1.261993540004619 2.9511536865682677 Q 1.2609450300063838 2.941753520251462 1.2650742680953482 2.9325361782916213 Q 1.2692035061843128 2.9233188363317804 1.2769160340885006 2.917843490376763 Q 1.2846285619926885 2.912368144421746 1.294175113247332 2.911604364910066 Q 1.3037216645019756 2.910840585398386 1.3133953105192344 2.915174241214527 Q 1.3206961754379205 2.9184449248493505 1.3257681193987199 2.923511273086346 Q 1.3308400633595194 2.928577621323342 1.3329938834159993 2.935021304987544 L 1.326874359452296 2.9374299200372485 Q 1.3226521628248533 2.926553199224466 1.310970778954956 2.921320105408749 Q 1.3032136099788523 2.917845004046749 1.295429111438404 2.9184667616150657 Q 1.2876446128979557 2.919088519183382 1.2813666854786494 2.9235629048750633 Q 1.275088758059343 2.9280372905667447 1.2717363073336492 2.9355206771083977 Q 1.2683838566079553 2.9430040636500507 1.2692447142570853 2.950621735479943 Q 1.2701055719062155 2.9582394073098355 1.2747577323605574 2.964487399235811 Q 1.2794098928148994 2.9707353911617864 1.2871670617910032 2.9742104925237864 Q 1.2970232294312292 2.978625915430798 1.3060755017460028 2.976764097518332 L 1.3157240184687318 2.9552265460082086 M 1.4090556256110087 3.020968670064604 L 1.4069362034358268 3.027007548242159 L 1.3602292550313015 3.0106151423559866 L 1.3834104350723533 2.944564912288981 L 1.4287020214040143 2.960460578602845 L 1.4265825992288323 2.9664994567804 L 1.3882734657899691 2.95305437235659 L 1.3800275888896523 2.976549382766139 L 1.4141849935814463 2.9885373644445115 L 1.4120986873777517 2.994481885150542 L 1.3779412826859576 2.9824939034721694 L 1.3693311300992812 3.0070268460684857 L 1.4090556256110087 3.020968670064604 M 1.5045662328186094 2.9826507931394333 L 1.4855477831719637 3.0500176883702363 L 1.479677239444708 3.0483603663296 L 1.4518020630810413 2.9814707965694764 L 1.4363699496534774 3.036134220128185 L 1.4292483064433639 3.034123698308397 L 1.4482667560900095 2.9667568030775935 L 1.4541372998172652 2.96841412511823 L 1.4821087146026901 3.035330864092135 L 1.497540828030254 2.9806674405334257 L 1.5045662328186094 2.9826507931394333 M 1.540265572076558 2.99743694930918 L 1.516240830288289 2.9921481137088803 L 1.5176167875176352 2.9858977743818507 L 1.572893225941051 2.9980663961288823 L 1.5715172687117047 3.0043167354559115 L 1.5474925269234356 2.9990278998556117 L 1.5338189519568068 3.061140646917966 L 1.526591997109929 3.0595496963715343 L 1.540265572076558 2.99743694930918 M 1.624561774586506 3.071282899131741 L 1.623515915904282 3.0775968661586437 L 1.57468132718058 3.0695078029133187 L 1.5861204065174037 3.000448788556568 L 1.6334751592191754 3.0082927286732475 L 1.6324293005369515 3.01460669570015 L 1.5923750722100363 3.0079720296847925 L 1.588306028274509 3.0325373076488367 L 1.6240194042704283 3.0384529458201652 L 1.6229898871301143 3.044668257112273 L 1.5872765111341949 3.038752618940944 L 1.5830277102376604 3.064403109987737 L 1.624561774586506 3.071282899131741 M 1.6939755544747865 3.08566950920632 L 1.680443233857712 3.0616044661206177 Q 1.6777266491928906 3.0616174182963807 1.674842892239169 3.0613109124532683 L 1.6561481919874563 3.0593239090565394 L 1.6538018369125955 3.081399565736753 L 1.6464432846858574 3.0806174473784664 L 1.6538417015885718 3.0110095209093233 L 1.6798949540670225 3.0137786426643394 Q 1.6932198999911154 3.0151949110428586 1.700100905319517 3.0223623210123325 Q 1.706981910647919 3.029529730981806 1.7057981639434845 3.0406669992168687 Q 1.7049314922491665 3.048821070603254 1.7002075786727768 3.0540008042376026 Q 1.6954836650963871 3.059180537871951 1.6875625640096845 3.0608527093865505 L 1.702030185966216 3.086525611733634 L 1.6939755544747865 3.08566950920632 M 1.691606994950671 3.052131323122682 Q 1.6975623708554248 3.048138392139923 1.6984396117167466 3.039884880858582 Q 1.6993379909120763 3.0314324897873286 1.694349693788177 3.026326670381621 Q 1.689361396664278 3.0212208509759133 1.6790196475888624 3.0201216576075103 L 1.6605238271270615 3.018155792544789 L 1.6568140495087005 3.0530591956743165 L 1.6753098699705014 3.0550250607370377 Q 1.685651619045917 3.056124254105441 1.691606994950671 3.052131323122682 M 1.7396926638469656 3.024956808230297 L 1.7151271854581762 3.023654014489937 L 1.7154661236670503 3.0172629957221218 L 1.7719866958949153 3.020260480506852 L 1.7716477576860412 3.026651499274667 L 1.7470822792972518 3.0253487055343076 L 1.7437140808465657 3.0888594545394703 L 1.7363244653962795 3.0884675572354596 L 1.7396926638469656 3.024956808230297 M 1.8258351276587448 3.0716711656947133 L 1.7868351278001056 3.0716744862583782 L 1.7784367199982587 3.0903752013889254 L 1.7707367200261683 3.090375856987393 L 1.8027307599241145 3.020373132676059 L 1.8100307598976546 3.0203725111346547 L 1.8420367197677319 3.0903697863158714 L 1.8342367197960041 3.0903704504286047 L 1.8258351276587448 3.0716711656947133 M 1.8231346168125828 3.0656713956016377 L 1.806331415509533 3.0280728261345797 L 1.7895346169343707 3.0656742563949493 L 1.8231346168125828 3.0656713956016377 M 1.8552416954049467 3.0193906658251377 L 1.8626347308526943 3.0190696878378143 L 1.8656710091111606 3.08900380693813 L 1.858277973663413 3.089324784925454 L 1.8552416954049467 3.0193906658251377 M 1.9453125310335255 3.0127401086731473 L 1.9516492564745338 3.0824527037380656 L 1.9455743017617337 3.0830049040979253 L 1.895617262005011 3.0305117218858966 L 1.9007590620771435 3.087078513310002 L 1.8933894448845663 3.0877483957137657 L 1.887052719443558 3.0180358006488475 L 1.893127674156358 3.0174836002889878 L 1.9431843033346021 3.0699677300361006 L 1.9380425032624697 3.0134009386119955 L 1.9453125310335255 3.0127401086731473 M 2.0413293508237538 2.9979565156198418 L 2.05281422725657 3.067007928446249 L 2.0458104410984634 3.0681728230558636 L 2.03662253995221 3.0129316927947376 L 2.017222880341631 3.0639053448808267 L 2.0137703097003103 3.0644795887024676 L 1.9789645087034247 3.0228257027257044 L 1.98810318895068 3.0777708983604315 L 1.9810994027925728 3.0789357929700456 L 1.9696145263597564 3.0098843801436383 L 1.9756318637632007 3.00888355519735 L 2.0141351214315715 3.055092527799249 L 2.03531201342031 2.99895734056613 L 2.0413293508237538 2.9979565156198418 M 2.128061058230957 3.0430933912374716 L 2.1295391033943223 3.0493203794737744 L 2.0813772412541676 3.0607521350341744 L 2.065211122279864 2.992644451199612 L 2.1119135340521353 2.981559112474376 L 2.1133915792155005 2.9877861007106787 L 2.073889122591454 2.9971624497157747 L 2.0796396420551706 3.02138932582264 L 2.1148610442667586 3.0130291328673575 L 2.1163159949744457 3.0191588244124685 L 2.081094592762858 3.0275190173677506 L 2.087099151239028 3.0528161570777312 L 2.128061058230957 3.0430933912374716 M 2.1877453001876974 2.9592582730395076 L 2.208125879151195 3.026225668099437 L 2.202290149010258 3.0280016899805418 L 2.142702296684208 2.9867642330370185 L 2.1592396807574463 3.0411034907427896 L 2.1521602704225393 3.0432580090903594 L 2.131779691459042 2.97629061403043 L 2.1376154215999787 2.9745145921493252 L 2.1972989416332567 3.0157229339800433 L 2.180761557560019 2.9613836762742722 L 2.1877453001876974 2.9592582730395076 M 2.225766044735837 2.9524197470441482 L 2.2026796406000066 2.9609155074031226 L 2.2004693614822246 2.9549092884409554 L 2.253586860428891 2.935362132493071 L 2.255797139546673 2.9413683514552385 L 2.232710735410843 2.949864111814213 L 2.254675384143801 3.0095509127507496 L 2.247730693468795 3.012106547980685 L 2.225766044735837 2.9524197470441482 M 2.288873104928657 2.9866869550456885 Q 2.2908454566667973 2.987560069368704 2.2917093340514434 2.9896916687363846 Q 2.292160052686911 2.990803807536914 2.2923615172781355 2.9922327624062093 Q 2.29256298186936 2.9936617172755042 2.2925903121889193 2.9955928446803206 L 2.2938810906949447 3.0099599561105417 L 2.2894325354928284 3.011762830652412 L 2.287137411915761 2.9970474506788607 Q 2.2854667607502774 2.997185017692597 2.2840329199516023 2.9963094604048917 Q 2.2825990791529267 2.995433903117186 2.2818854413134364 2.9936730166830148 Q 2.2810215639287903 2.991541417315334 2.281829559191973 2.9895415064036497 Q 2.282637554455155 2.9875415954919653 2.2847691538228356 2.986677718107319 Q 2.2869007531905163 2.9858138407226726 2.288873104928657 2.9866869550456885 M 2.350911549440431 2.9423829448699927 L 2.3612834706367956 2.9642476024409774 L 2.3546879334356308 2.9673763224712855 L 2.344316012239266 2.9455116649003013 L 2.2993885575788915 2.9161320151791084 L 2.3065261937280974 2.912746140077816 L 2.3450538087992028 2.937967418335127 L 2.349894109571372 2.892173734399076 L 2.35657999659721 2.88900215519027 L 2.350911549440431 2.9423829448699927 M 2.4077055089711354 2.9363893541552857 Q 2.3980605643244286 2.936395893418284 2.3899906481754383 2.9315949608684284 Q 2.3819207320264475 2.9267940283185734 2.3770453445635806 2.9179486568121344 Q 2.3721699571007138 2.9091032853056955 2.372419944843918 2.8997165922709653 Q 2.3726699325871228 2.8903298992362356 2.377825659074952 2.882178611952457 Q 2.3829813855627817 2.874027324668678 2.3920894908763426 2.8690071237168153 Q 2.4011975961899035 2.8639869227649526 2.4107308273194037 2.863984865697099 Q 2.420264058448904 2.863982808629246 2.4284018991472474 2.8688033945654556 Q 2.4365397398455912 2.873623980501665 2.441415127308458 2.882469352008104 Q 2.4462905147713245 2.891314723514543 2.446020873641766 2.9007693410986257 Q 2.4457512325122073 2.9102239586827086 2.440658948378586 2.918283185835635 Q 2.435566664244964 2.9263424129885616 2.426458558931403 2.9313626139404243 Q 2.4173504536178423 2.936382814892287 2.4077055089711354 2.9363893541552857 M 2.4345991839171375 2.915057623144915 Q 2.438656736997077 2.908539282634979 2.4387746662145426 2.9008810457164924 Q 2.438892595432008 2.893222808798006 2.4349343600661166 2.8860414180700062 Q 2.4309761247002246 2.8788600273420064 2.424438130803934 2.87487039881142 Q 2.4179001369076443 2.870880770280833 2.4102222466028036 2.8708307656127205 Q 2.4025443562979625 2.8707807609446077 2.3952753876342556 2.874787267473498 Q 2.3880064189705483 2.878793774002389 2.3839050769227548 2.885336250093824 Q 2.3798037348749617 2.891878726185259 2.379642016689642 2.899561098685245 Q 2.379480298504323 2.9072434711852306 2.3834385338702146 2.914424861913231 Q 2.3873967692361067 2.9216062526412307 2.3939785521002506 2.925571745590318 Q 2.4005603349643945 2.9295372385394054 2.4082820142370887 2.9295631076260187 Q 2.4160036935097833 2.929588976712632 2.4232726621734906 2.9255824701837416 Q 2.4305416308371974 2.921575963654851 2.4345991839171375 2.915057623144915 M 2.479945641153123 2.8912112591896575 Q 2.469332497616755 2.88876970552929 2.4612635431032928 2.876243653754701 L 2.4395477661912226 2.8425326016633585 L 2.44576875834773 2.8385252014351963 L 2.4673220730883876 2.8719840511418155 Q 2.4739288680591422 2.8822402814538948 2.481801821873975 2.884305856005807 Q 2.4896747756888082 2.886371430557719 2.498417791692548 2.8807394086154363 Q 2.507244875157862 2.8750532326160165 2.5086193421162153 2.867030711778998 Q 2.5099938090745684 2.8590081909419798 2.503387014103814 2.8487519606299005 L 2.4818336993631562 2.815293110923281 L 2.4878865565965147 2.811394018809393 L 2.5096023335085844 2.8451050709007357 Q 2.5176712880220466 2.8576311226753246 2.51554821112989 2.868277015991998 Q 2.5134251342377327 2.8789229093086712 2.501991959463612 2.886287861079348 Q 2.4905587846894908 2.8936528128500254 2.479945641153123 2.8912112591896575 M 2.5875600590009817 2.8256049605251397 L 2.5613237164409592 2.817008197816239 Q 2.5593298397838504 2.8188533145811716 2.556996871516824 2.8205758879656893 L 2.5418728013719636 2.831742915423941 L 2.5550593976258567 2.8496021897439356 L 2.5491063061858585 2.8539977218285664 L 2.5075269486285383 2.7976846946934484 L 2.528604110213397 2.782122135150566 Q 2.539384032550691 2.7741626581324503 2.549299559616316 2.774796947507152 Q 2.5592150866819408 2.775431236881854 2.565867783891112 2.784441321223473 Q 2.570738508633541 2.7910379901164437 2.5707559987419426 2.798048317790391 Q 2.570773488850344 2.805058645464338 2.5660640329211 2.811643554336183 L 2.5940762807123314 2.8207936348649354 L 2.5875600590009817 2.8256049605251397 M 2.563152579068918 2.802481489259651 Q 2.5648448162757673 2.7955139693826965 2.559914692451114 2.7888368533081036 Q 2.5548657704620106 2.781998842870268 2.547738517231597 2.781605445628846 Q 2.5406112640011833 2.7812120483874243 2.5322447571125375 2.7873895529387975 L 2.5172815813309204 2.7984377822326 L 2.538130659191805 2.8266747429817802 L 2.553093834973422 2.8156265136879783 Q 2.5614603418620683 2.809449009136605 2.563152579068918 2.802481489259651 M 2.6597229802567104 2.671463114839606 L 2.6891111324763948 2.7392369778629915 L 2.683321323104479 2.7444636505557165 L 2.628100367735254 2.713886108337447 L 2.6528134814140003 2.7720041951289214 L 2.6470979003673656 2.7771638591973806 L 2.582673978615063 2.741018066827408 L 2.5883153313364167 2.735925411383214 L 2.6436486448511274 2.767075121100686 L 2.6188231730268954 2.7083848668100092 L 2.6239449274712827 2.703761271735676 L 2.679776180159914 2.7348656319319278 L 2.6544527691617614 2.676220727162471 L 2.6597229802567104 2.671463114839606 M 2.735715672821633 2.665248499466618 L 2.7087628564379433 2.693436186299473 L 2.7164732689033633 2.7124309102936004 L 2.7111518154122245 2.7179961715400873 L 2.682673662745 2.646490963193686 L 2.687718677093742 2.641214806427536 L 2.760427092544458 2.666463297920022 L 2.75503652926772 2.6721008352865927 L 2.735715672821633 2.665248499466618 M 2.7295131414054 2.66305336757294 L 2.6907268762730583 2.649210476361792 L 2.706292253444067 2.687338143921246 L 2.7295131414054 2.66305336757294 M 2.7659758152847704 2.6225764230936335 L 2.784341483114062 2.6383353013907755 L 2.7795877718921966 2.643875358215314 L 2.7612221040629055 2.6281164799181718 L 2.708230526422347 2.6195413589764796 L 2.7133749536350504 2.613545955015678 L 2.7588288306938336 2.6209239669650453 L 2.744632232902109 2.5771181841146045 L 2.7494510634557807 2.571502236100689 L 2.7659758152847704 2.6225764230936335 M 2.806042560312598 2.610366876878092 Q 2.8038249601429084 2.6105784176245046 2.802028504448113 2.6091421909931407 Q 2.800232048753318 2.6077059643617773 2.799989285688832 2.605527417576757 Q 2.799746522624346 2.603348870791737 2.8011203046195634 2.601630521866281 Q 2.802494086614781 2.599912172940825 2.8047038557178743 2.5996303564916694 Q 2.8069136248209676 2.5993485400425134 2.8087100805157625 2.6007847666738773 Q 2.8105065362105575 2.602220993305241 2.81075713034164 2.6044698157930037 Q 2.8110077244727223 2.6067186382807668 2.8096339424775048 2.6084369872062227 Q 2.808260160482287 2.6101553361316787 2.806042560312598 2.610366876878092" fill="#ffffff" fill-rule="nonzero"></path></g><g transform="matrix(1,0,0,1,0,0)" clip-path="url(#SvgjsClipPath31829)"><g clip-path="url(#b8d0e697e-a253-44f1-8867-5251adeb61d593e48eff-d9e5-46d8-96dd-020a289aecd7)"><path d=" M 0 3.612552775072711 L 3.6125511162440715 3.612552775072711 L 3.6125511162440715 0.0000016588286396206466 L 0 0.0000016588286396206466 Z" fill="#4c4544" transform="matrix(1,0,0,1,0,0)" fill-rule="nonzero"></path></g><g clip-path="url(#c8d0e697e-a253-44f1-8867-5251adeb61d593e48eff-d9e5-46d8-96dd-020a289aecd7)"><path d=" M 2.758426071511198 -0.5396692426184344 L -1.9334373574138264 4.152194186306589" fill="none" transform="matrix(1,0,0,1,0,0)" fill-rule="nonzero" opacity="0.35" stroke-dasharray="none" stroke-miterlimit="4" stroke-linejoin="miter" stroke-linecap="butt" stroke-width="0.014745106596914578" stroke="#4c4544"></path></g><g clip-path="url(#c8d0e697e-a253-44f1-8867-5251adeb61d593e48eff-d9e5-46d8-96dd-020a289aecd7)"><path d=" M 6.103530444300432 -0.5396692426184344 L 1.4116670153754085 4.152194186306589" fill="none" transform="matrix(1,0,0,1,0,0)" fill-rule="nonzero" opacity="0.35" stroke-dasharray="none" stroke-miterlimit="4" stroke-linejoin="miter" stroke-linecap="butt" stroke-width="0.014745106596914578" stroke="#4c4544"></path></g><g clip-path="url(#c8d0e697e-a253-44f1-8867-5251adeb61d593e48eff-d9e5-46d8-96dd-020a289aecd7)"><path d=" M 3.8734510323698776 -0.5396692426184344 L -0.8184123965551463 4.152194186306589" fill="none" transform="matrix(1,0,0,1,0,0)" fill-rule="nonzero" opacity="0.35" stroke-dasharray="none" stroke-miterlimit="4" stroke-linejoin="miter" stroke-linecap="butt" stroke-width="0.014745106596914578" stroke="#4c4544"></path></g><g clip-path="url(#c8d0e697e-a253-44f1-8867-5251adeb61d593e48eff-d9e5-46d8-96dd-020a289aecd7)"><path d=" M 6.661042924729772 -0.5396692426184344 L 1.9691794958047477 4.152194186306589" fill="none" transform="matrix(1,0,0,1,0,0)" fill-rule="nonzero" opacity="0.35" stroke-dasharray="none" stroke-miterlimit="4" stroke-linejoin="miter" stroke-linecap="butt" stroke-width="0.014745106596914578" stroke="#4c4544"></path></g><g clip-path="url(#c8d0e697e-a253-44f1-8867-5251adeb61d593e48eff-d9e5-46d8-96dd-020a289aecd7)"><path d=" M 4.988475993228559 -0.5396692426184344 L 0.29661256430353466 4.152194186306589" fill="none" transform="matrix(1,0,0,1,0,0)" fill-rule="nonzero" opacity="0.35" stroke-dasharray="none" stroke-miterlimit="4" stroke-linejoin="miter" stroke-linecap="butt" stroke-width="0.014745106596914578" stroke="#4c4544"></path></g><g clip-path="url(#c8d0e697e-a253-44f1-8867-5251adeb61d593e48eff-d9e5-46d8-96dd-020a289aecd7)"><path d=" M 7.218555405159112 -0.5396692426184344 L 2.5266919762340883 4.152194186306589" fill="none" transform="matrix(1,0,0,1,0,0)" fill-rule="nonzero" opacity="0.35" stroke-dasharray="none" stroke-miterlimit="4" stroke-linejoin="miter" stroke-linecap="butt" stroke-width="0.014745106596914578" stroke="#4c4544"></path></g><g clip-path="url(#c8d0e697e-a253-44f1-8867-5251adeb61d593e48eff-d9e5-46d8-96dd-020a289aecd7)"><path d=" M 0.5283466595806431 -0.5396692426184344 L -4.1635167693443815 4.152194186306589" fill="none" transform="matrix(1,0,0,1,0,0)" fill-rule="nonzero" opacity="0.35" stroke-dasharray="none" stroke-miterlimit="4" stroke-linejoin="miter" stroke-linecap="butt" stroke-width="0.014745106596914578" stroke="#4c4544"></path></g><g clip-path="url(#c8d0e697e-a253-44f1-8867-5251adeb61d593e48eff-d9e5-46d8-96dd-020a289aecd7)"><path d=" M 5.545988473657899 -0.5396692426184344 L 0.8541250447328745 4.152194186306589" fill="none" transform="matrix(1,0,0,1,0,0)" fill-rule="nonzero" opacity="0.35" stroke-dasharray="none" stroke-miterlimit="4" stroke-linejoin="miter" stroke-linecap="butt" stroke-width="0.014745106596914578" stroke="#4c4544"></path></g><g clip-path="url(#c8d0e697e-a253-44f1-8867-5251adeb61d593e48eff-d9e5-46d8-96dd-020a289aecd7)"><path d=" M 7.776067885588453 -0.5396692426184344 L 3.0842044566634286 4.152194186306589" fill="none" transform="matrix(1,0,0,1,0,0)" fill-rule="nonzero" opacity="0.35" stroke-dasharray="none" stroke-miterlimit="4" stroke-linejoin="miter" stroke-linecap="butt" stroke-width="0.014745106596914578" stroke="#4c4544"></path></g><g clip-path="url(#c8d0e697e-a253-44f1-8867-5251adeb61d593e48eff-d9e5-46d8-96dd-020a289aecd7)"><path d=" M 3.3159385519405373 -0.5396692426184344 L -1.3759248769844867 4.152194186306589" fill="none" transform="matrix(1,0,0,1,0,0)" fill-rule="nonzero" opacity="0.35" stroke-dasharray="none" stroke-miterlimit="4" stroke-linejoin="miter" stroke-linecap="butt" stroke-width="0.014745106596914578" stroke="#4c4544"></path></g><g clip-path="url(#c8d0e697e-a253-44f1-8867-5251adeb61d593e48eff-d9e5-46d8-96dd-020a289aecd7)"><path d=" M 6.382271939408505 -0.5396692426184344 L 1.6904085104834814 4.152194186306589" fill="none" transform="matrix(1,0,0,1,0,0)" fill-rule="nonzero" opacity="0.35" stroke-dasharray="none" stroke-miterlimit="4" stroke-linejoin="miter" stroke-linecap="butt" stroke-width="0.014745106596914578" stroke="#4c4544"></path></g><g clip-path="url(#c8d0e697e-a253-44f1-8867-5251adeb61d593e48eff-d9e5-46d8-96dd-020a289aecd7)"><path d=" M 4.430963512799218 -0.5396692426184344 L -0.2608999161258058 4.152194186306589" fill="none" transform="matrix(1,0,0,1,0,0)" fill-rule="nonzero" opacity="0.35" stroke-dasharray="none" stroke-miterlimit="4" stroke-linejoin="miter" stroke-linecap="butt" stroke-width="0.014745106596914578" stroke="#4c4544"></path></g><g clip-path="url(#c8d0e697e-a253-44f1-8867-5251adeb61d593e48eff-d9e5-46d8-96dd-020a289aecd7)"><path d=" M 6.939784419837846 -0.5396692426184344 L 2.2479209909128217 4.152194186306589" fill="none" transform="matrix(1,0,0,1,0,0)" fill-rule="nonzero" opacity="0.35" stroke-dasharray="none" stroke-miterlimit="4" stroke-linejoin="miter" stroke-linecap="butt" stroke-width="0.014745106596914578" stroke="#4c4544"></path></g><g clip-path="url(#c8d0e697e-a253-44f1-8867-5251adeb61d593e48eff-d9e5-46d8-96dd-020a289aecd7)"><path d=" M 5.267246978549826 -0.5396692426184344 L 0.5753835496248016 4.152194186306589" fill="none" transform="matrix(1,0,0,1,0,0)" fill-rule="nonzero" opacity="0.35" stroke-dasharray="none" stroke-miterlimit="4" stroke-linejoin="miter" stroke-linecap="butt" stroke-width="0.014745106596914578" stroke="#4c4544"></path></g><g clip-path="url(#c8d0e697e-a253-44f1-8867-5251adeb61d593e48eff-d9e5-46d8-96dd-020a289aecd7)"><path d=" M 7.497296900267185 -0.5396692426184344 L 2.805433471342161 4.152194186306589" fill="none" transform="matrix(1,0,0,1,0,0)" fill-rule="nonzero" opacity="0.35" stroke-dasharray="none" stroke-miterlimit="4" stroke-linejoin="miter" stroke-linecap="butt" stroke-width="0.014745106596914578" stroke="#4c4544"></path></g><g clip-path="url(#c8d0e697e-a253-44f1-8867-5251adeb61d593e48eff-d9e5-46d8-96dd-020a289aecd7)"><path d=" M 1.6433716204393234 -0.5396692426184344 L -3.0484918084857004 4.152194186306589" fill="none" transform="matrix(1,0,0,1,0,0)" fill-rule="nonzero" opacity="0.35" stroke-dasharray="none" stroke-miterlimit="4" stroke-linejoin="miter" stroke-linecap="butt" stroke-width="0.014745106596914578" stroke="#4c4544"></path></g><g clip-path="url(#c8d0e697e-a253-44f1-8867-5251adeb61d593e48eff-d9e5-46d8-96dd-020a289aecd7)"><path d=" M 5.824759458979165 -0.5396692426184344 L 1.1328960300541409 4.152194186306589" fill="none" transform="matrix(1,0,0,1,0,0)" fill-rule="nonzero" opacity="0.35" stroke-dasharray="none" stroke-miterlimit="4" stroke-linejoin="miter" stroke-linecap="butt" stroke-width="0.014745106596914578" stroke="#4c4544"></path></g><g clip-path="url(#c8d0e697e-a253-44f1-8867-5251adeb61d593e48eff-d9e5-46d8-96dd-020a289aecd7)"><path d=" M 8.05483887090972 -0.5396692426184344 L 3.362975441984696 4.152194186306589" fill="none" transform="matrix(1,0,0,1,0,0)" fill-rule="nonzero" opacity="0.35" stroke-dasharray="none" stroke-miterlimit="4" stroke-linejoin="miter" stroke-linecap="butt" stroke-width="0.014745106596914578" stroke="#4c4544"></path></g><g clip-path="url(#c8d0e697e-a253-44f1-8867-5251adeb61d593e48eff-d9e5-46d8-96dd-020a289aecd7)"><path d=" M 3.0371970568324644 -0.5396692426184344 L -1.6546663720925596 4.152194186306589" fill="none" transform="matrix(1,0,0,1,0,0)" fill-rule="nonzero" opacity="0.35" stroke-dasharray="none" stroke-miterlimit="4" stroke-linejoin="miter" stroke-linecap="butt" stroke-width="0.014745106596914578" stroke="#4c4544"></path></g><g clip-path="url(#c8d0e697e-a253-44f1-8867-5251adeb61d593e48eff-d9e5-46d8-96dd-020a289aecd7)"><path d=" M 3.5946800470486107 -0.5396692426184344 L -1.0971833818764132 4.152194186306589" fill="none" transform="matrix(1,0,0,1,0,0)" fill-rule="nonzero" opacity="0.35" stroke-dasharray="none" stroke-miterlimit="4" stroke-linejoin="miter" stroke-linecap="butt" stroke-width="0.014745106596914578" stroke="#4c4544"></path></g><g clip-path="url(#c8d0e697e-a253-44f1-8867-5251adeb61d593e48eff-d9e5-46d8-96dd-020a289aecd7)"><path d=" M 1.0858591400099833 -0.5396692426184344 L -3.6060042889150408 4.152194186306589" fill="none" transform="matrix(1,0,0,1,0,0)" fill-rule="nonzero" opacity="0.35" stroke-dasharray="none" stroke-miterlimit="4" stroke-linejoin="miter" stroke-linecap="butt" stroke-width="0.014745106596914578" stroke="#4c4544"></path></g><g clip-path="url(#c8d0e697e-a253-44f1-8867-5251adeb61d593e48eff-d9e5-46d8-96dd-020a289aecd7)"><path d=" M 4.1522220176911455 -0.5396692426184344 L -0.5396414112338787 4.152194186306589" fill="none" transform="matrix(1,0,0,1,0,0)" fill-rule="nonzero" opacity="0.35" stroke-dasharray="none" stroke-miterlimit="4" stroke-linejoin="miter" stroke-linecap="butt" stroke-width="0.014745106596914578" stroke="#4c4544"></path></g><g clip-path="url(#c8d0e697e-a253-44f1-8867-5251adeb61d593e48eff-d9e5-46d8-96dd-020a289aecd7)"><path d=" M 2.2009135910818576 -0.5396692426184344 L -2.4909498378431665 4.152194186306589" fill="none" transform="matrix(1,0,0,1,0,0)" fill-rule="nonzero" opacity="0.35" stroke-dasharray="none" stroke-miterlimit="4" stroke-linejoin="miter" stroke-linecap="butt" stroke-width="0.014745106596914578" stroke="#4c4544"></path></g><g clip-path="url(#c8d0e697e-a253-44f1-8867-5251adeb61d593e48eff-d9e5-46d8-96dd-020a289aecd7)"><path d=" M 4.709734498120485 -0.5396692426184344 L 0.01787106919546115 4.152194186306589" fill="none" transform="matrix(1,0,0,1,0,0)" fill-rule="nonzero" opacity="0.35" stroke-dasharray="none" stroke-miterlimit="4" stroke-linejoin="miter" stroke-linecap="butt" stroke-width="0.014745106596914578" stroke="#4c4544"></path></g><g clip-path="url(#c8d0e697e-a253-44f1-8867-5251adeb61d593e48eff-d9e5-46d8-96dd-020a289aecd7)"><path d=" M 0.8071176449019101 -0.5396692426184344 L -3.8847457840231137 4.152194186306589" fill="none" transform="matrix(1,0,0,1,0,0)" fill-rule="nonzero" opacity="0.35" stroke-dasharray="none" stroke-miterlimit="4" stroke-linejoin="miter" stroke-linecap="butt" stroke-width="0.014745106596914578" stroke="#4c4544"></path></g><g clip-path="url(#c8d0e697e-a253-44f1-8867-5251adeb61d593e48eff-d9e5-46d8-96dd-020a289aecd7)"><path d=" M 1.9221426057605904 -0.5396692426184344 L -2.769720823164434 4.152194186306589" fill="none" transform="matrix(1,0,0,1,0,0)" fill-rule="nonzero" opacity="0.35" stroke-dasharray="none" stroke-miterlimit="4" stroke-linejoin="miter" stroke-linecap="butt" stroke-width="0.014745106596914578" stroke="#4c4544"></path></g><g clip-path="url(#c8d0e697e-a253-44f1-8867-5251adeb61d593e48eff-d9e5-46d8-96dd-020a289aecd7)"><path d=" M 0.2495756742593761 -0.5396692426184344 L -4.4422877546656485 4.152194186306589" fill="none" transform="matrix(1,0,0,1,0,0)" fill-rule="nonzero" opacity="0.35" stroke-dasharray="none" stroke-miterlimit="4" stroke-linejoin="miter" stroke-linecap="butt" stroke-width="0.014745106596914578" stroke="#4c4544"></path></g><g clip-path="url(#c8d0e697e-a253-44f1-8867-5251adeb61d593e48eff-d9e5-46d8-96dd-020a289aecd7)"><path d=" M 1.3646301253312503 -0.5396692426184344 L -3.327233303593774 4.152194186306589" fill="none" transform="matrix(1,0,0,1,0,0)" fill-rule="nonzero" opacity="0.35" stroke-dasharray="none" stroke-miterlimit="4" stroke-linejoin="miter" stroke-linecap="butt" stroke-width="0.014745106596914578" stroke="#4c4544"></path></g><g clip-path="url(#c8d0e697e-a253-44f1-8867-5251adeb61d593e48eff-d9e5-46d8-96dd-020a289aecd7)"><path d=" M 2.4796550861899305 -0.5396692426184344 L -2.2122083427350936 4.152194186306589" fill="none" transform="matrix(1,0,0,1,0,0)" fill-rule="nonzero" opacity="0.35" stroke-dasharray="none" stroke-miterlimit="4" stroke-linejoin="miter" stroke-linecap="butt" stroke-width="0.014745106596914578" stroke="#4c4544"></path></g><g clip-path="url(#b8d0e697e-a253-44f1-8867-5251adeb61d593e48eff-d9e5-46d8-96dd-020a289aecd7)"><path d=" M 1.3449306629177724 2.98441123404415 L 1.3449306629177724 2.3253049691620684 L 0.9040224854568327 2.3253049691620684 Z" fill="#ffffff" transform="matrix(1,0,0,1,0,0)" fill-rule="nonzero"></path></g><g clip-path="url(#b8d0e697e-a253-44f1-8867-5251adeb61d593e48eff-d9e5-46d8-96dd-020a289aecd7)"><path d=" M 2.8388753731039635 0.8507943094706107 L 0.7737052333533019 0.8507943094706107 C 0.6765695950766214 0.8507943094706107 0.597825601865305 0.9295383026819272 0.597825601865305 1.0266739409586079 L 0.597825601865305 2.329816971780724 C 0.597825601865305 2.4269526100574046 0.6765695950766214 2.505696603268721 0.7737052333533019 2.505696603268721 L 2.8388753731039635 2.505696603268721 C 2.935999494536123 2.5056803182045364 3.014725515744047 2.4269410945781638 3.014725514378767 2.329816971780724 L 3.014725514378767 1.0266739409586079 C 3.0147255158260293 0.929549818309627 2.935999494684568 0.8508105946168022 2.8388753732524226 0.8507943094706356" fill="#ffffff" transform="matrix(1,0,0,1,0,0)" fill-rule="nonzero"></path></g><g clip-path="url(#b8d0e697e-a253-44f1-8867-5251adeb61d593e48eff-d9e5-46d8-96dd-020a289aecd7)"><path d=" M 3.9969855354388284 -0.38443276036611734 L -0.38440492898156303 -0.38443276036611734 L -0.38440492898156303 3.996957704054274 L 3.9969855354388284 3.996957704054274 Z M 3.6125511162440715 1.8062772169506753 C 3.6125511162440715 2.803842658658334 2.8038409998296947 3.612552775072711 1.8062755581220358 3.612552775072711 C 0.8087101164143768 3.612552775072711 0 2.803842658658334 0 1.8062772169506753 C 0 0.8087117752430165 0.8087101164143768 0.0000016588286396206466 1.8062755581220358 0.0000016588286396206466 C 2.8038409998296947 0.0000016588286396206466 3.6125511162440715 0.8087117752430165 3.6125511162440715 1.8062772169506753" fill="#ffffff" transform="matrix(1,0,0,1,0,0)" fill-rule="nonzero"></path></g></g></g><defs><clipPath id="SvgjsClipPath31829"><path d=" M 0 0 h 3.612552775072711 v 3.612552775072711 h -3.612552775072711 Z"></path></clipPath><clipPath id="b8d0e697e-a253-44f1-8867-5251adeb61d593e48eff-d9e5-46d8-96dd-020a289aecd7"><path d=" M -4.476968245381592 -0.5743497333343767 L 8.089519361625664 -0.5743497333343767 L 8.089519361625664 4.186904167235728 L -4.476968245381592 4.186904167235728 Z"></path></clipPath><clipPath id="c8d0e697e-a253-44f1-8867-5251adeb61d593e48eff-d9e5-46d8-96dd-020a289aecd7"><path d=" M -4.476968245381592 -0.5743497333343767 L 8.089519361625664 -0.5743497333343767 L 8.089519361625664 4.186904167235728 L -4.476968245381592 4.186904167235728 Z"></path></clipPath></defs></svg>